<svg width="99" height="114" viewBox="0 0 99 114" fill="none" xmlns="http://www.w3.org/2000/svg">
<g id="&#225;&#132;&#140;&#225;&#133;&#161;&#225;&#132;&#137;&#225;&#133;&#161;&#225;&#134;&#171; 1 1" clip-path="url(#clip0_12401_6851)">
<g id="Objects">
<g id="Group">
<path id="Vector" d="M98.985 8.72026C98.9395 8.62895 98.8331 8.56807 98.7268 8.59851C97.8002 8.99418 96.8736 9.32898 95.9167 9.679C93.2888 10.653 90.5547 11.2921 87.8205 11.9313C84.6914 12.6313 81.5015 13.1335 78.3876 13.9097C75.699 14.564 73.0255 15.3554 70.4433 16.3902C68.499 17.1511 66.585 17.9729 64.7926 19.023C62.666 20.1948 60.9496 21.9449 59.2787 23.6797C57.7445 25.2929 56.1952 26.906 54.8433 28.6865C54.0838 29.6909 53.4458 30.7866 52.8382 31.8823C53.7952 28.2604 55.1319 24.608 57.5774 21.7166C57.7597 21.4883 57.5471 21.2144 57.2888 21.3361C56.6661 21.6405 56.0888 22.0362 55.4964 22.4014C50.9699 25.4755 46.9293 29.2952 43.4509 33.5107C41.7496 35.5956 40.1091 37.7261 38.7572 40.0545C37.1926 42.7785 36.0078 45.7156 35.1572 48.7441C35.0661 46.9483 35.218 45.1526 35.461 43.3721C35.5066 43.0525 35.5521 42.7481 35.5673 42.4285C35.5673 42.2155 35.6281 41.9111 35.4154 41.7894C35.2635 41.7133 35.1116 41.7894 35.0053 41.9111C34.8686 42.0481 34.7623 42.2003 34.6407 42.3524C34.3977 42.672 34.1547 43.0068 33.9268 43.3416C33.1673 44.4221 32.4838 45.5635 31.8914 46.7505C30.4331 49.7485 29.0964 52.7769 27.7445 55.8205C26.3774 58.8642 25.1167 61.9687 23.7952 65.0275C22.5344 67.919 21.1521 70.7648 19.7243 73.5801C18.9496 75.0867 18.1597 76.5933 17.2331 78.0238C16.8382 78.6326 16.4281 79.2261 16.0028 79.8044C16.0635 79.6826 16.1243 79.5761 16.185 79.4544C17.4306 77.0042 18.2812 74.3867 19.0559 71.754C19.6939 70.0647 20.3319 68.3755 21.0458 66.732C21.8812 64.8601 22.6255 62.9579 23.3395 61.0404C24.7673 57.4184 26.499 53.9487 28.4736 50.5855C29.7496 48.4093 31.1167 46.2787 32.3623 44.0721C33.5319 42.0024 34.4585 39.811 35.5217 37.6957C36.3116 36.113 37.1167 34.5303 37.8002 32.9019C37.9977 32.4454 38.1952 31.9736 38.3774 31.5019C38.4534 31.2736 38.5445 31.0301 38.5901 30.7866C38.5901 30.6953 38.6053 30.5888 38.5445 30.4975C38.4078 30.2844 38.1344 30.3605 37.9673 30.4975C37.4812 30.8627 37.0255 31.2432 36.5547 31.6388C35.0357 32.9324 33.4559 34.1498 31.8306 35.3064C35.3091 31.0758 39.0154 26.7538 40.6863 21.4274C40.8078 20.9709 41.142 19.8295 40.8078 19.4491C40.58 19.2512 40.3218 19.5252 40.185 19.6926C38.7724 21.4579 37.2838 23.1623 35.6281 24.6993C36.2661 23.6949 36.8736 22.6601 37.4205 21.5948C38.3319 19.7687 39.2281 17.9273 39.9724 16.025C40.8534 13.6966 41.5218 11.3073 42.2205 8.93331C42.9344 6.34622 43.5724 3.72869 44.3471 1.15682C44.423 0.91333 44.499 0.669839 44.5445 0.41113C44.5445 0.335039 44.5749 0.24373 44.5445 0.167639C44.499 0.0306752 44.3319 -0.0606339 44.1952 -0.0149794C44.0736 0.015457 43.9521 0.0915479 43.8458 0.182857C42.2964 1.6438 40.9142 3.27215 39.4255 4.77875C38.3319 5.90489 37.223 7.04626 36.1749 8.21806C34.0635 10.6225 32.18 13.2401 30.6914 16.0706C29.3395 18.6425 28.3521 21.4274 27.7445 24.2732C26.9243 27.9865 26.6509 31.791 26.1344 35.5499C25.542 33.9216 25.1926 32.2019 25.1167 30.4518C25.0863 29.8735 25.0559 29.2648 25.0255 28.6409C25.0255 28.3517 25.0255 27.7278 24.585 27.8647C24.4483 27.9408 24.3724 28.093 24.2964 28.2452C24.1597 28.5191 24.0382 28.8083 23.9167 29.0974C23.5369 29.9801 23.1116 30.8323 22.7167 31.6997C21.5926 34.1346 20.6205 36.6608 20.1192 39.2936C19.6787 41.4546 19.4509 43.6612 19.4509 45.8526C19.4509 48.9267 19.9217 51.9551 19.9066 55.0444C19.0711 53.69 18.2205 52.3203 17.8711 50.7377C17.6888 49.992 17.5521 49.2463 17.4306 48.5006C17.4002 48.2875 17.3547 48.0593 17.3243 47.8462C17.2939 47.694 17.2939 47.4962 17.1724 47.3897C16.899 47.1766 16.7167 47.5418 16.6559 47.7701C16.1395 49.4137 15.8812 51.1485 15.8205 52.8834C15.7445 54.6335 15.9116 56.3836 16.0787 58.1337C16.2306 59.7164 16.3977 61.2991 16.504 62.897C16.4281 63.4753 16.3977 64.0536 16.3521 64.6319C16.1699 67.4777 15.8509 70.3234 15.304 73.1236C14.9395 75.3759 14.4686 77.5977 13.6787 79.7587C13.223 81.2958 12.6306 82.7871 11.8863 84.2024C11.7648 84.4003 11.6585 84.6133 11.5521 84.8112C10.0787 87.4439 8.72681 90.1375 7.23821 92.7551C6.342 94.2921 5.47618 95.8596 4.67112 97.4575C4.07871 98.4923 3.53188 99.5424 3.06099 100.623C2.65086 101.536 2.25593 102.464 1.89137 103.393C1.75466 103.788 1.35973 104.58 1.57238 104.975C1.89137 105.264 2.1496 104.884 2.34707 104.473C2.39264 104.427 2.43821 104.382 2.46859 104.336C2.59011 104.169 2.69643 104.001 2.78757 103.819C3.03061 103.408 3.27365 103.012 3.5015 102.616C4.50403 100.866 5.47618 99.101 6.46352 97.3357C7.93694 94.5964 9.54707 91.9333 11.1724 89.2701C11.4458 88.8288 11.704 88.3874 11.9774 87.9309C12.3116 87.4439 12.6458 86.9721 12.9952 86.4852C13.618 85.6329 14.2863 84.8112 15.0154 84.0502C15.9116 83.0611 17.0357 82.1023 18.0838 81.2653C19.6028 80.0327 20.9699 78.6326 22.3066 77.2173C25.4205 73.8236 28.3521 70.2626 31.3901 66.7928C33.4104 64.3579 35.5825 62.0143 37.9066 59.8838C39.623 58.438 41.4002 57.0532 43.2078 55.7292C46.0939 53.6595 49.1319 51.8181 52.0028 49.718C55.3901 47.2375 58.7015 44.6504 61.7395 41.7437C61.8306 41.6372 61.9369 41.5154 61.8762 41.3633C61.8154 41.1654 61.5724 41.1959 61.4053 41.2415C60.7217 41.4241 60.0686 41.6981 59.4002 41.8655C58.7167 42.0176 58.018 42.1546 57.3344 42.2763C55.4661 42.6416 53.5521 42.7938 51.6534 42.809C52.7319 42.3981 53.8255 42.0024 54.9192 41.6372C57.6382 40.8154 60.3876 40.1154 63.0458 39.111C67.7699 37.4826 71.9015 34.5607 75.6838 31.3497C76.6104 30.5736 77.5521 29.7974 78.4028 28.93C78.5547 28.7474 78.7825 28.58 78.8129 28.3213C78.8129 28.0169 78.4483 28.0169 78.2205 28.0778C76.0939 28.5343 73.9521 28.9757 71.7952 29.2039C70.3673 29.3409 68.8787 29.4474 67.4509 29.1887C69.1066 28.6865 70.7774 28.2452 72.4787 27.8952C74.0585 27.5756 75.6534 27.2712 77.1876 26.7995C79.5724 26.0994 81.7141 24.7298 83.5369 23.0558C84.6306 22.0057 85.6483 20.8796 86.6509 19.7382C87.7141 18.5208 88.6711 17.212 89.7952 16.0402C91.2686 14.4879 92.8787 13.0727 94.5952 11.8095C95.8711 10.8051 97.2382 9.95293 98.6509 9.14637C98.7572 9.08549 98.8635 9.05506 98.9699 8.99418C99.061 8.93331 99.0914 8.82678 99.0458 8.72026H98.985ZM15.9724 81.0218C15.9724 81.0218 15.9724 81.0218 15.942 81.0218H15.9572H15.9724ZM19.6028 64.6623C20.7724 60.8273 21.8964 56.9771 23.1116 53.1573C24.2509 49.2463 25.3901 45.3352 26.5901 41.4546C27.9268 36.8587 28.9901 32.1867 30.4028 27.606C31.4053 24.3798 32.5293 21.1839 33.7901 18.049C34.9293 15.2184 36.2053 12.4335 37.9369 9.90727C36.5243 13.2705 35.0661 16.6033 33.8357 20.0274C32.6509 23.0253 31.6483 26.0842 30.7825 29.1887C28.6711 36.0521 27.3952 43.1438 25.3597 50.0224C24.4939 53.066 23.5217 56.0792 22.4736 59.0772C21.7293 61.223 20.8483 63.3687 20.1192 65.5145C18.4939 70.2778 16.9901 75.0867 15.1369 79.7739C15.1066 79.8044 15.0762 79.8348 15.0458 79.8652C14.985 79.85 14.9243 79.8652 14.8787 79.8805C15.1977 78.8761 15.5015 77.8565 15.7597 76.8368C16.9901 72.7584 18.342 68.7255 19.6028 64.6623ZM65.2635 27.256C63.5015 28.4735 61.7395 29.6909 60.0686 31.0149C57.2888 33.2367 54.585 35.5347 51.8964 37.8631C50.3319 39.2631 48.9192 40.8306 47.4458 42.3372C45.9876 43.859 44.5142 45.3504 43.1319 46.9331C41.2939 48.9876 39.4104 51.0116 37.6483 53.1421C36.099 54.9683 34.6863 56.9162 33.2888 58.8642C32.2559 60.249 31.2078 61.6339 30.2357 63.0644C29.0812 64.7232 27.8812 66.3363 26.7268 67.9951C25.5724 69.6691 24.4331 71.3431 23.3091 73.0323C22.5952 74.0976 21.8812 75.178 21.0458 76.1672C20.0585 77.339 19.0407 78.5717 17.9167 79.6522C17.4914 80.0326 17.0812 80.4131 16.6711 80.8088C16.6711 80.8088 16.6711 80.8088 16.6559 80.8088C16.4585 80.7631 16.4585 80.5805 16.504 80.4283C17.3091 79.5304 18.1142 78.6478 18.904 77.7347C19.861 76.6238 20.7268 75.4368 21.5319 74.2193C25.8154 67.9494 30.1445 61.6947 34.7471 55.6379C36.4635 53.4008 38.2407 51.1942 40.1547 49.1245C43.4509 45.6243 46.8534 42.2459 50.2559 38.837C54.6458 34.4542 59.3243 30.3453 64.4129 26.7995C68.4686 24.0602 72.7825 21.7166 77.2331 19.6926C73.0711 21.9296 69.1825 24.6537 65.2635 27.2712V27.256Z" fill="#5534DA"/>
<path id="Vector_2" d="M69.0001 104.26C68.8786 104.519 68.7115 104.747 68.5292 104.96C66.6153 106.954 63.79 107.989 61.1166 108.521C58.4128 109.084 55.633 108.567 52.99 107.973C55.6178 105.797 58.5647 103.256 59.1571 99.7099C59.7343 95.464 55.7394 92.7095 51.8963 92.5269C39.0457 92.1008 27.4406 99.0859 16.5495 105.128C12.4178 107.395 7.8153 110.302 2.90897 109.16C2.22543 108.963 1.52669 108.521 1.31404 107.791C1.32923 107.593 1.23809 107.365 1.04062 107.273C-0.478369 106.969 0.600112 109.115 1.29885 109.495C7.32923 112.95 15.714 106.543 21.0457 103.773C26.5444 100.76 32.2254 97.7163 38.2102 95.7531C43.1773 94.277 49.0558 92.6334 54.1748 94.0183C56.7875 94.7792 58.8229 97.5184 57.9875 100.258C56.9394 103.423 54.2204 105.66 51.6837 107.639C47.6887 106.68 43.5419 105.63 39.4102 106.223C37.1318 106.634 34.5039 107.441 33.3647 109.632C31.5875 113.224 36.0381 113.924 38.6204 113.848C43.4659 113.695 48.0837 111.702 51.9115 108.765C56.2558 109.906 60.5545 110.332 64.7925 108.536C66.7064 107.654 68.8786 106.68 69.9115 104.717C70.2305 104.123 69.2887 103.636 68.9849 104.23L69.0001 104.26ZM38.4837 112.828C37.0862 112.721 34.6254 112.919 34.033 111.352C33.9419 109.373 36.1292 108.217 37.7697 107.715C41.9773 106.436 46.4128 107.502 50.5748 108.476C47.0659 111.047 42.8583 112.706 38.4837 112.828Z" fill="#5534DA"/>
</g>
</g>
</g>
<defs>
<clipPath id="clip0_12401_6851">
<rect width="98.7342" height="113.878" fill="white" transform="translate(0.265625)"/>
</clipPath>
</defs>
</svg>
